<svg xmlns="http://www.w3.org/2000/svg" xmlns:xlink="http://www.w3.org/1999/xlink" viewBox="0,0,256,256" width="60px" height="60px" fill-rule="nonzero"><g fill="#f8fafc" fill-rule="nonzero" stroke="none" stroke-width="1" stroke-linecap="butt" stroke-linejoin="miter" stroke-miterlimit="10" stroke-dasharray="" stroke-dashoffset="0" font-family="none" font-weight="none" font-size="none" text-anchor="none" style="mix-blend-mode: normal"><g transform="translate(253.43856,257.2463) rotate(-180) scale(8.53333,8.53333)"><path d="M18.10352,6.93555c-0.18262,-0.01913 -0.37047,0.0117 -0.54297,0.0957c-0.343,0.167 -0.56055,0.51644 -0.56055,0.89844v4.06836h-13c-1.105,0 -2,0.895 -2,2v2c0,1.105 0.895,2 2,2h13v4.07227c0,0.383 0.21755,0.73144 0.56055,0.89844c0.14,0.069 0.29045,0.10156 0.43945,0.10156c0.219,0 0.43623,-0.06998 0.61523,-0.20898l9.07031,-7.07227c0.243,-0.19 0.38477,-0.47811 0.38477,-0.78711c0,-0.309 -0.14177,-0.60006 -0.38477,-0.78906l-9.07031,-7.07227c-0.151,-0.1175 -0.32909,-0.18595 -0.51172,-0.20508z"></path></g></g></svg>