<svg xmlns="http://www.w3.org/2000/svg" xmlns:xlink="http://www.w3.org/1999/xlink" viewBox="0,0,256,256" width="48px" height="48px" fill-rule="nonzero"><defs><linearGradient x1="11" y1="5.723" x2="11" y2="15.488" gradientUnits="userSpaceOnUse" id="color-1"><stop offset="0" stop-color="#ba6f79"></stop><stop offset="1" stop-color="#aa2f3f"></stop></linearGradient><linearGradient x1="24" y1="5.723" x2="24" y2="15.488" gradientUnits="userSpaceOnUse" id="color-2"><stop offset="0" stop-color="#ba6f79"></stop><stop offset="1" stop-color="#aa2f3f"></stop></linearGradient><linearGradient x1="37" y1="5.723" x2="37" y2="15.488" gradientUnits="userSpaceOnUse" id="color-3"><stop offset="0" stop-color="#ba6f79"></stop><stop offset="1" stop-color="#aa2f3f"></stop></linearGradient><linearGradient x1="11" y1="18.745" x2="11" y2="28.108" gradientUnits="userSpaceOnUse" id="color-4"><stop offset="0" stop-color="#ba6f79"></stop><stop offset="1" stop-color="#aa2f3f"></stop></linearGradient><linearGradient x1="24" y1="18.745" x2="24" y2="28.108" gradientUnits="userSpaceOnUse" id="color-5"><stop offset="0" stop-color="#ba6f79"></stop><stop offset="1" stop-color="#aa2f3f"></stop></linearGradient><linearGradient x1="37" y1="18.745" x2="37" y2="28.108" gradientUnits="userSpaceOnUse" id="color-6"><stop offset="0" stop-color="#ba6f79"></stop><stop offset="1" stop-color="#aa2f3f"></stop></linearGradient><linearGradient x1="11" y1="32.362" x2="11" y2="41.385" gradientUnits="userSpaceOnUse" id="color-7"><stop offset="0" stop-color="#ba6f79"></stop><stop offset="1" stop-color="#aa2f3f"></stop></linearGradient><linearGradient x1="24" y1="32.362" x2="24" y2="41.385" gradientUnits="userSpaceOnUse" id="color-8"><stop offset="0" stop-color="#ba6f79"></stop><stop offset="1" stop-color="#aa2f3f"></stop></linearGradient><linearGradient x1="37" y1="32.362" x2="37" y2="41.385" gradientUnits="userSpaceOnUse" id="color-9"><stop offset="0" stop-color="#ba6f79"></stop><stop offset="1" stop-color="#aa2f3f"></stop></linearGradient></defs><g fill="none" fill-rule="nonzero" stroke="none" stroke-width="1" stroke-linecap="butt" stroke-linejoin="miter" stroke-miterlimit="10" stroke-dasharray="" stroke-dashoffset="0" font-family="none" font-weight="none" font-size="none" text-anchor="none" style="mix-blend-mode: normal"><g transform="scale(5.33333,5.33333)"><path d="M11,16v0c-2.75,0 -5,-2.25 -5,-5v0c0,-2.75 2.25,-5 5,-5v0c2.75,0 5,2.25 5,5v0c0,2.75 -2.25,5 -5,5z" fill="url(#color-1)"></path><path d="M24,16v0c-2.75,0 -5,-2.25 -5,-5v0c0,-2.75 2.25,-5 5,-5v0c2.75,0 5,2.25 5,5v0c0,2.75 -2.25,5 -5,5z" fill="url(#color-2)"></path><path d="M37,16v0c-2.75,0 -5,-2.25 -5,-5v0c0,-2.75 2.25,-5 5,-5v0c2.75,0 5,2.25 5,5v0c0,2.75 -2.25,5 -5,5z" fill="url(#color-3)"></path><path d="M11,29v0c-2.75,0 -5,-2.25 -5,-5v0c0,-2.75 2.25,-5 5,-5v0c2.75,0 5,2.25 5,5v0c0,2.75 -2.25,5 -5,5z" fill="url(#color-4)"></path><path d="M24,29v0c-2.75,0 -5,-2.25 -5,-5v0c0,-2.75 2.25,-5 5,-5v0c2.75,0 5,2.25 5,5v0c0,2.75 -2.25,5 -5,5z" fill="url(#color-5)"></path><path d="M37,29v0c-2.75,0 -5,-2.25 -5,-5v0c0,-2.75 2.25,-5 5,-5v0c2.75,0 5,2.25 5,5v0c0,2.75 -2.25,5 -5,5z" fill="url(#color-6)"></path><path d="M11,42v0c-2.75,0 -5,-2.25 -5,-5v0c0,-2.75 2.25,-5 5,-5v0c2.75,0 5,2.25 5,5v0c0,2.75 -2.25,5 -5,5z" fill="url(#color-7)"></path><path d="M24,42v0c-2.75,0 -5,-2.25 -5,-5v0c0,-2.75 2.25,-5 5,-5v0c2.75,0 5,2.25 5,5v0c0,2.75 -2.25,5 -5,5z" fill="url(#color-8)"></path><path d="M37,42v0c-2.75,0 -5,-2.25 -5,-5v0c0,-2.75 2.25,-5 5,-5v0c2.75,0 5,2.25 5,5v0c0,2.75 -2.25,5 -5,5z" fill="url(#color-9)"></path></g></g></svg>